<svg width="20" height="20" viewBox="0 0 20 20" fill="none" xmlns="http://www.w3.org/2000/svg">
<path d="M16.25 8.22198C16.2523 9.2318 15.8632 10.2032 15.1645 10.9323C13.5626 12.5933 12.0086 14.3252 10.3476 15.9251C9.96632 16.2861 9.36191 16.273 8.99769 15.8956L4.21029 10.933C2.76324 9.43278 2.76324 7.01119 4.21029 5.51164C4.55229 5.15266 4.96363 4.86688 5.41937 4.67161C5.87511 4.47634 6.36576 4.37566 6.86157 4.37566C7.35738 4.37566 7.84803 4.47634 8.30377 4.67161C8.75951 4.86688 9.17085 5.15266 9.51285 5.51164L9.68741 5.69145L9.86132 5.51164C10.204 5.15351 10.6155 4.86825 11.071 4.67294C11.5266 4.47763 12.0169 4.3763 12.5126 4.375C13.5101 4.375 14.4637 4.7845 15.1639 5.51164C15.8628 6.24064 16.2521 7.21208 16.25 8.22198V8.22198Z" stroke="#EDE8E7" stroke-width="2" stroke-linejoin="round"/>
</svg>
