<svg width="20" height="20" viewBox="0 0 20 20" fill="none" xmlns="http://www.w3.org/2000/svg">
<path d="M12.917 12.9167L15.8337 15.8334L12.917 12.9167ZM4.16699 9.16675C4.16699 9.82336 4.29632 10.4735 4.54759 11.0802C4.79887 11.6868 5.16717 12.238 5.63146 12.7023C6.09575 13.1666 6.64695 13.5349 7.25358 13.7861C7.8602 14.0374 8.51038 14.1667 9.16699 14.1667C9.8236 14.1667 10.4738 14.0374 11.0804 13.7861C11.687 13.5349 12.2382 13.1666 12.7025 12.7023C13.1668 12.238 13.5351 11.6868 13.7864 11.0802C14.0377 10.4735 14.167 9.82336 14.167 9.16675C14.167 7.84067 13.6402 6.5689 12.7025 5.63121C11.7648 4.69353 10.4931 4.16675 9.16699 4.16675C7.84091 4.16675 6.56914 4.69353 5.63146 5.63121C4.69378 6.5689 4.16699 7.84067 4.16699 9.16675V9.16675Z" stroke="#EDE8E7" stroke-width="2" stroke-linecap="round" stroke-linejoin="round"/>
</svg>
