<svg width="20" height="20" viewBox="0 0 20 20" fill="none" xmlns="http://www.w3.org/2000/svg">
<path d="M4.16699 16.6666V15.8333C4.16699 14.2862 4.78157 12.8024 5.87554 11.7085C6.9695 10.6145 8.45323 9.99992 10.0003 9.99992V9.99992C11.5474 9.99992 13.0312 10.6145 14.1251 11.7085C15.2191 12.8024 15.8337 14.2862 15.8337 15.8333V16.6666H4.16699ZM10.0003 9.99992C10.8844 9.99992 11.7322 9.64873 12.3573 9.02361C12.9825 8.39849 13.3337 7.55064 13.3337 6.66659C13.3337 5.78253 12.9825 4.93468 12.3573 4.30956C11.7322 3.68444 10.8844 3.33325 10.0003 3.33325C9.11627 3.33325 8.26842 3.68444 7.6433 4.30956C7.01818 4.93468 6.66699 5.78253 6.66699 6.66659C6.66699 7.55064 7.01818 8.39849 7.6433 9.02361C8.26842 9.64873 9.11627 9.99992 10.0003 9.99992V9.99992Z" stroke="#EDE8E7" stroke-width="2" stroke-linecap="round" stroke-linejoin="round"/>
</svg>
